<svg version="1.1" id="Layer_1" xmlns="http://www.w3.org/2000/svg" xmlns:xlink="http://www.w3.org/1999/xlink" x="0px" y="0px"
	 width="100%" viewBox="0 0 217 203" enable-background="new 0 0 217 203" xml:space="preserve">
<path fill="#FFFFFF" opacity="1.000000" stroke="none" 
	d="
M218.000000,76.000000 
	C218.000000,119.000000 218.000000,161.500000 218.000000,204.000000 
	C145.666672,204.000000 73.333336,204.000000 1.000000,204.000000 
	C1.000000,136.333328 1.000000,68.666664 1.000000,1.000000 
	C73.333336,1.000000 145.666672,1.000000 218.000000,1.000000 
	C218.000000,25.833334 218.000000,50.666668 218.000000,76.000000 
M55.500252,22.248171 
	C48.901600,22.248171 42.302952,22.248171 35.587509,22.248171 
	C35.587509,40.356464 35.587509,57.744202 35.587509,75.698494 
	C37.709133,75.698494 39.495422,75.698402 41.281708,75.698509 
	C69.594246,75.700180 97.906975,75.762001 126.219231,75.673515 
	C137.292343,75.638908 142.403610,79.393364 142.229736,91.277321 
	C141.808273,120.083313 142.177231,148.900146 142.005051,177.711273 
	C141.979782,181.938202 143.304153,183.053467 147.392242,182.990784 
	C161.878204,182.768707 176.371216,182.786682 190.857925,182.982651 
	C194.720566,183.034897 196.001740,181.997208 195.989670,177.961288 
	C195.853867,132.495102 195.820740,87.028076 195.966629,41.561947 
	C195.998413,31.655424 187.836945,21.992287 176.410736,22.100435 
	C136.443680,22.478733 96.470833,22.247986 55.500252,22.248171 
z"/>
<path fill="#959899" opacity="1.000000" stroke="none" 
	d="
M56.000221,22.248383 
	C96.470833,22.247986 136.443680,22.478733 176.410736,22.100435 
	C187.836945,21.992287 195.998413,31.655424 195.966629,41.561947 
	C195.820740,87.028076 195.853867,132.495102 195.989670,177.961288 
	C196.001740,181.997208 194.720566,183.034897 190.857925,182.982651 
	C176.371216,182.786682 161.878204,182.768707 147.392242,182.990784 
	C143.304153,183.053467 141.979782,181.938202 142.005051,177.711273 
	C142.177231,148.900146 141.808273,120.083313 142.229736,91.277321 
	C142.403610,79.393364 137.292343,75.638908 126.219231,75.673515 
	C97.906975,75.762001 69.594246,75.700180 41.281708,75.698509 
	C39.495422,75.698402 37.709133,75.698494 35.587509,75.698494 
	C35.587509,57.744202 35.587509,40.356464 35.587509,22.248171 
	C42.302952,22.248171 48.901600,22.248171 56.000221,22.248383 
M161.498108,30.044819 
	C126.345146,30.044813 91.192192,30.044807 56.039230,30.044800 
	C43.044823,30.044798 43.044811,30.044798 43.044792,43.078884 
	C43.044777,51.017624 43.044792,58.956367 43.044792,67.358162 
	C45.766846,67.358162 47.737385,67.358139 49.707924,67.358162 
	C76.031006,67.358467 102.354240,67.411827 128.677109,67.335724 
	C141.013000,67.300056 150.425812,75.576790 150.128693,88.724899 
	C149.519150,115.700615 150.016006,142.700119 149.870010,169.688812 
	C149.847687,173.814957 151.135971,175.251328 155.294983,175.132767 
	C164.117706,174.881302 172.966492,174.758270 181.777206,175.169525 
	C186.985626,175.412628 188.181564,173.563278 188.159256,168.614258 
	C187.975235,127.797653 188.056885,86.979866 188.042511,46.162434 
	C188.041931,44.502819 188.050079,42.815731 187.775772,41.188366 
	C186.464325,33.407932 182.463837,30.087227 174.492172,30.049150 
	C170.493820,30.030054 166.495300,30.045214 161.498108,30.044819 
z"/>
<path fill="#FDFDFD" opacity="1.000000" stroke="none" 
	d="
M161.997482,30.044849 
	C166.495300,30.045214 170.493820,30.030054 174.492172,30.049150 
	C182.463837,30.087227 186.464325,33.407932 187.775772,41.188366 
	C188.050079,42.815731 188.041931,44.502819 188.042511,46.162434 
	C188.056885,86.979866 187.975235,127.797653 188.159256,168.614258 
	C188.181564,173.563278 186.985626,175.412628 181.777206,175.169525 
	C172.966492,174.758270 164.117706,174.881302 155.294983,175.132767 
	C151.135971,175.251328 149.847687,173.814957 149.870010,169.688812 
	C150.016006,142.700119 149.519150,115.700615 150.128693,88.724899 
	C150.425812,75.576790 141.013000,67.300056 128.677109,67.335724 
	C102.354240,67.411827 76.031006,67.358467 49.707924,67.358162 
	C47.737385,67.358139 45.766846,67.358162 43.044792,67.358162 
	C43.044792,58.956367 43.044777,51.017624 43.044792,43.078884 
	C43.044811,30.044798 43.044823,30.044798 56.039230,30.044800 
	C91.192192,30.044807 126.345146,30.044813 161.997482,30.044849 
z"/>
</svg>